<?xml version="1.0" encoding="utf-8"?>
<!-- Generator: Adobe Illustrator 15.1.0, SVG Export Plug-In  -->
<!DOCTYPE svg PUBLIC "-//W3C//DTD SVG 1.1//EN" "http://www.w3.org/Graphics/SVG/1.1/DTD/svg11.dtd" [
	<!ENTITY ns_flows "http://ns.adobe.com/Flows/1.0/">
]>
<svg version="1.1"
	 xmlns="http://www.w3.org/2000/svg" xmlns:xlink="http://www.w3.org/1999/xlink" xmlns:a="http://ns.adobe.com/AdobeSVGViewerExtensions/3.0/"
	 x="0px" y="0px" width="2041px" height="1213px" viewBox="-690.152 -256.624 2041 1213"
	 enable-background="new -690.152 -256.624 2041 1213" xml:space="preserve">
<defs>
</defs>
<polygon fill="#322C1E" points="225.654,255.954 221.416,217.889 235.483,217.889 231.846,255.954 "/>
<polygon fill="#007F66" points="226.484,254.698 223.504,219.145 233.396,219.145 230.838,254.698 "/>
<polygon fill="#322C1E" points="244.629,255.953 240.391,217.887 254.457,217.887 250.82,255.953 "/>
<polygon fill="#C1272D" points="245.459,254.697 242.478,219.144 252.37,219.144 249.813,254.697 "/>
<polygon fill="#322C1E" points="264.953,255.953 260.715,217.887 274.781,217.887 271.145,255.953 "/>
<polygon fill="#1B1464" points="265.783,254.697 262.802,219.144 272.694,219.144 270.137,254.697 "/>
<polygon fill="#322C1E" points="283.928,255.953 279.688,217.889 293.756,217.889 290.118,255.953 "/>
<polygon fill="#006837" points="284.757,254.698 281.775,219.145 291.668,219.145 289.11,254.698 "/>
<rect x="95.732" y="253.992" fill="#603813" width="322.026" height="58.293"/>
<rect x="0.578" y="306.884" fill="#482A0E" width="512.334" height="81.228"/>
<rect y="178.869" fill="#603813" width="96.836" height="128.512"/>
<rect x="416.078" y="178.492" fill="#603813" width="96.834" height="128.512"/>
<rect x="93.326" y="0.5" fill="none" stroke="#322C1E" stroke-miterlimit="10" width="3.246" height="0"/>
<line fill="none" stroke="#322C1E" stroke-miterlimit="10" x1="96.572" y1="0.5" x2="93.326" y2="0.5"/>
<line fill="none" stroke="#322C1E" stroke-miterlimit="10" x1="96.572" y1="0.5" x2="93.326" y2="0.5"/>
<line fill="none" stroke="#322C1E" stroke-miterlimit="10" x1="96.572" y1="0.5" x2="93.326" y2="0.5"/>
<line fill="none" stroke="#322C1E" stroke-miterlimit="10" x1="96.572" y1="0.5" x2="93.326" y2="0.5"/>
<line fill="none" stroke="#322C1E" stroke-miterlimit="10" x1="96.572" y1="0.5" x2="93.326" y2="0.5"/>
<rect x="39.842" y="56.53" fill="#603813" width="429.027" height="9.056"/>
<rect x="39.842" y="98.79" fill="#603813" width="429.027" height="9.056"/>
<rect x="39.842" y="144.068" fill="#603813" width="429.027" height="9.057"/>
<path fill="#7E8C8A" stroke="#000000" stroke-miterlimit="10" d="M139.469,33.337v17.315c0,1.713-1.393,3.102-3.105,3.102h-9.84
	c-1.714,0-3.105-1.389-3.105-3.102V33.337c0-1.714,1.392-3.102,3.105-3.102h2.977V19.418h3.932v10.817h2.932
	C138.076,30.235,139.469,31.623,139.469,33.337z"/>
<path fill="#7E8C8A" stroke="#000000" stroke-miterlimit="10" d="M168.898,36.113v17.315c0,1.713-1.393,3.102-3.105,3.102h-9.841
	c-1.713,0-3.104-1.389-3.104-3.102V36.113c0-1.713,1.392-3.102,3.104-3.102h2.978V22.194h3.932v10.817h2.932
	C167.506,33.012,168.898,34.4,168.898,36.113z"/>
<path fill="#7E8C8A" stroke="#000000" stroke-miterlimit="10" d="M197.762,36.113v17.315c0,1.713-1.393,3.102-3.105,3.102h-9.84
	c-1.713,0-3.105-1.389-3.105-3.102V36.113c0-1.713,1.393-3.102,3.105-3.102h2.977V22.194h3.932v10.817h2.932
	C196.369,33.012,197.762,34.4,197.762,36.113z"/>
<path fill="#7E8C8A" stroke="#000000" stroke-miterlimit="10" d="M227.191,36.113v17.315c0,1.713-1.393,3.102-3.105,3.102h-9.841
	c-1.713,0-3.104-1.389-3.104-3.102V36.113c0-1.713,1.392-3.102,3.104-3.102h2.978V22.194h3.932v10.817h2.932
	C225.799,33.012,227.191,34.4,227.191,36.113z"/>
<path fill="#7E8C8A" stroke="#000000" stroke-miterlimit="10" d="M249.83,36.113v17.315c0,1.713-1.393,3.102-3.105,3.102h-9.841
	c-1.714,0-3.105-1.389-3.105-3.102V36.113c0-1.713,1.392-3.102,3.105-3.102h2.978V22.194h3.932v10.817h2.932
	C248.438,33.012,249.83,34.4,249.83,36.113z"/>
<path fill="#7E8C8A" stroke="#000000" stroke-miterlimit="10" d="M279.259,36.113v17.315c0,1.713-1.392,3.102-3.104,3.102h-9.842
	c-1.713,0-3.105-1.389-3.105-3.102V36.113c0-1.713,1.393-3.102,3.105-3.102h2.978V22.194h3.932v10.817h2.933
	C277.867,33.012,279.259,34.4,279.259,36.113z"/>
<path fill="#7E8C8A" stroke="#000000" stroke-miterlimit="10" d="M308.123,36.113v17.315c0,1.713-1.393,3.102-3.105,3.102h-9.841
	c-1.714,0-3.105-1.389-3.105-3.102V36.113c0-1.713,1.392-3.102,3.105-3.102h2.978V22.194h3.932v10.817h2.932
	C306.73,33.012,308.123,34.4,308.123,36.113z"/>
<path fill="#7E8C8A" stroke="#000000" stroke-miterlimit="10" d="M337.553,36.113v17.315c0,1.713-1.393,3.102-3.105,3.102h-9.841
	c-1.714,0-3.106-1.389-3.106-3.102V36.113c0-1.713,1.393-3.102,3.106-3.102h2.978V22.194h3.932v10.817h2.932
	C336.16,33.012,337.553,34.4,337.553,36.113z"/>
<path fill="#7E8C8A" stroke="#000000" stroke-miterlimit="10" d="M362.324,36.113v17.315c0,1.713-1.393,3.102-3.105,3.102h-9.84
	c-1.713,0-3.105-1.389-3.105-3.102V36.113c0-1.713,1.393-3.102,3.105-3.102h2.977V22.194h3.932v10.817h2.932
	C360.932,33.012,362.324,34.4,362.324,36.113z"/>
<path fill="#7E8C8A" stroke="#000000" stroke-miterlimit="10" d="M391.754,36.113v17.315c0,1.713-1.393,3.102-3.105,3.102h-9.84
	c-1.713,0-3.105-1.389-3.105-3.102V36.113c0-1.713,1.393-3.102,3.105-3.102h2.977V22.194h3.932v10.817h2.932
	C390.361,33.012,391.754,34.4,391.754,36.113z"/>
<path fill="#2A5621" stroke="#000000" stroke-miterlimit="10" d="M139.469,79.506V96.82c0,1.713-1.393,3.102-3.105,3.102h-9.84
	c-1.714,0-3.105-1.389-3.105-3.102V79.506c0-1.713,1.392-3.102,3.105-3.102h2.977V65.586h3.932v10.818h2.932
	C138.076,76.404,139.469,77.793,139.469,79.506z"/>
<path fill="#2A5621" stroke="#000000" stroke-miterlimit="10" d="M168.898,79.506V96.82c0,1.713-1.393,3.102-3.105,3.102h-9.841
	c-1.713,0-3.104-1.389-3.104-3.102V79.506c0-1.713,1.392-3.102,3.104-3.102h2.978V65.586h3.932v10.818h2.932
	C167.506,76.404,168.898,77.793,168.898,79.506z"/>
<path fill="#2A5621" stroke="#000000" stroke-miterlimit="10" d="M197.762,79.506V96.82c0,1.713-1.393,3.102-3.105,3.102h-9.84
	c-1.713,0-3.105-1.389-3.105-3.102V79.506c0-1.713,1.393-3.102,3.105-3.102h2.977V65.586h3.932v10.818h2.932
	C196.369,76.404,197.762,77.793,197.762,79.506z"/>
<path fill="#2A5621" stroke="#000000" stroke-miterlimit="10" d="M227.191,79.506V96.82c0,1.713-1.393,3.102-3.105,3.102h-9.841
	c-1.713,0-3.104-1.389-3.104-3.102V79.506c0-1.713,1.392-3.102,3.104-3.102h2.978V65.586h3.932v10.818h2.932
	C225.799,76.404,227.191,77.793,227.191,79.506z"/>
<path fill="#2A5621" stroke="#000000" stroke-miterlimit="10" d="M249.83,79.506V96.82c0,1.713-1.393,3.102-3.105,3.102h-9.841
	c-1.714,0-3.105-1.389-3.105-3.102V79.506c0-1.713,1.392-3.102,3.105-3.102h2.978V65.586h3.932v10.818h2.932
	C248.438,76.404,249.83,77.793,249.83,79.506z"/>
<path fill="#2A5621" stroke="#000000" stroke-miterlimit="10" d="M279.259,79.506V96.82c0,1.713-1.392,3.102-3.104,3.102h-9.842
	c-1.713,0-3.105-1.389-3.105-3.102V79.506c0-1.713,1.393-3.102,3.105-3.102h2.978V65.586h3.932v10.818h2.933
	C277.867,76.404,279.259,77.793,279.259,79.506z"/>
<path fill="#2A5621" stroke="#000000" stroke-miterlimit="10" d="M308.123,79.506V96.82c0,1.713-1.393,3.102-3.105,3.102h-9.841
	c-1.714,0-3.105-1.389-3.105-3.102V79.506c0-1.713,1.392-3.102,3.105-3.102h2.978V65.586h3.932v10.818h2.932
	C306.73,76.404,308.123,77.793,308.123,79.506z"/>
<path fill="#2A5621" stroke="#000000" stroke-miterlimit="10" d="M337.553,79.506V96.82c0,1.713-1.393,3.102-3.105,3.102h-9.841
	c-1.714,0-3.106-1.389-3.106-3.102V79.506c0-1.713,1.393-3.102,3.106-3.102h2.978V65.586h3.932v10.818h2.932
	C336.16,76.404,337.553,77.793,337.553,79.506z"/>
<path fill="#2A5621" stroke="#000000" stroke-miterlimit="10" d="M362.324,79.506V96.82c0,1.713-1.393,3.102-3.105,3.102h-9.84
	c-1.713,0-3.105-1.389-3.105-3.102V79.506c0-1.713,1.393-3.102,3.105-3.102h2.977V65.586h3.932v10.818h2.932
	C360.932,76.404,362.324,77.793,362.324,79.506z"/>
<path fill="#2A5621" stroke="#000000" stroke-miterlimit="10" d="M391.754,79.506V96.82c0,1.713-1.393,3.102-3.105,3.102h-9.84
	c-1.713,0-3.105-1.389-3.105-3.102V79.506c0-1.713,1.393-3.102,3.105-3.102h2.977V65.586h3.932v10.818h2.932
	C390.361,76.404,391.754,77.793,391.754,79.506z"/>
<path fill="#617F5F" stroke="#000000" stroke-miterlimit="10" d="M139.469,123.652v17.314c0,1.713-1.393,3.102-3.105,3.102h-9.84
	c-1.714,0-3.105-1.389-3.105-3.102v-17.314c0-1.713,1.392-3.102,3.105-3.102h2.977v-10.818h3.932v10.818h2.932
	C138.076,120.551,139.469,121.939,139.469,123.652z"/>
<path fill="#617F5F" stroke="#000000" stroke-miterlimit="10" d="M168.898,123.652v17.314c0,1.713-1.393,3.102-3.105,3.102h-9.841
	c-1.713,0-3.104-1.389-3.104-3.102v-17.314c0-1.713,1.392-3.102,3.104-3.102h2.978v-10.818h3.932v10.818h2.932
	C167.506,120.551,168.898,121.939,168.898,123.652z"/>
<path fill="#617F5F" stroke="#000000" stroke-miterlimit="10" d="M197.762,123.652v17.314c0,1.713-1.393,3.102-3.105,3.102h-9.84
	c-1.713,0-3.105-1.389-3.105-3.102v-17.314c0-1.713,1.393-3.102,3.105-3.102h2.977v-10.818h3.932v10.818h2.932
	C196.369,120.551,197.762,121.939,197.762,123.652z"/>
<path fill="#617F5F" stroke="#000000" stroke-miterlimit="10" d="M227.191,123.652v17.314c0,1.713-1.393,3.102-3.105,3.102h-9.841
	c-1.713,0-3.104-1.389-3.104-3.102v-17.314c0-1.713,1.392-3.102,3.104-3.102h2.978v-10.818h3.932v10.818h2.932
	C225.799,120.551,227.191,121.939,227.191,123.652z"/>
<path fill="#617F5F" stroke="#000000" stroke-miterlimit="10" d="M249.83,123.652v17.314c0,1.713-1.393,3.102-3.105,3.102h-9.841
	c-1.714,0-3.105-1.389-3.105-3.102v-17.314c0-1.713,1.392-3.102,3.105-3.102h2.978v-10.818h3.932v10.818h2.932
	C248.438,120.551,249.83,121.939,249.83,123.652z"/>
<path fill="#617F5F" stroke="#000000" stroke-miterlimit="10" d="M279.259,123.652v17.314c0,1.713-1.392,3.102-3.104,3.102h-9.842
	c-1.713,0-3.105-1.389-3.105-3.102v-17.314c0-1.713,1.393-3.102,3.105-3.102h2.978v-10.818h3.932v10.818h2.933
	C277.867,120.551,279.259,121.939,279.259,123.652z"/>
<path fill="#617F5F" stroke="#000000" stroke-miterlimit="10" d="M308.123,123.652v17.314c0,1.713-1.393,3.102-3.105,3.102h-9.841
	c-1.714,0-3.105-1.389-3.105-3.102v-17.314c0-1.713,1.392-3.102,3.105-3.102h2.978v-10.818h3.932v10.818h2.932
	C306.73,120.551,308.123,121.939,308.123,123.652z"/>
<path fill="#617F5F" stroke="#000000" stroke-miterlimit="10" d="M337.553,123.652v17.314c0,1.713-1.393,3.102-3.105,3.102h-9.841
	c-1.714,0-3.106-1.389-3.106-3.102v-17.314c0-1.713,1.393-3.102,3.106-3.102h2.978v-10.818h3.932v10.818h2.932
	C336.16,120.551,337.553,121.939,337.553,123.652z"/>
<path fill="#617F5F" stroke="#000000" stroke-miterlimit="10" d="M362.324,123.652v17.314c0,1.713-1.393,3.102-3.105,3.102h-9.84
	c-1.713,0-3.105-1.389-3.105-3.102v-17.314c0-1.713,1.393-3.102,3.105-3.102h2.977v-10.818h3.932v10.818h2.932
	C360.932,120.551,362.324,121.939,362.324,123.652z"/>
<path fill="#617F5F" stroke="#000000" stroke-miterlimit="10" d="M391.754,123.652v17.314c0,1.713-1.393,3.102-3.105,3.102h-9.84
	c-1.713,0-3.105-1.389-3.105-3.102v-17.314c0-1.713,1.393-3.102,3.105-3.102h2.977v-10.818h3.932v10.818h2.932
	C390.361,120.551,391.754,121.939,391.754,123.652z"/>
</svg>
