<?xml version="1.0" encoding="utf-8"?>
<!-- Generator: Adobe Illustrator 15.1.0, SVG Export Plug-In . SVG Version: 6.00 Build 0)  -->
<!DOCTYPE svg PUBLIC "-//W3C//DTD SVG 1.1//EN" "http://www.w3.org/Graphics/SVG/1.1/DTD/svg11.dtd">
<svg version="1.1" id="Layer_1" xmlns="http://www.w3.org/2000/svg" xmlns:xlink="http://www.w3.org/1999/xlink" x="0px" y="0px"
	 width="8861.561px" height="2209.478px" viewBox="0 0 8861.561 2209.478" enable-background="new 0 0 8861.561 2209.478"
	 xml:space="preserve">
<pattern  x="2470.023" y="346.027" width="100" height="75" patternUnits="userSpaceOnUse" id="New_Pattern_Swatch_2" viewBox="0 -75 100 75" overflow="visible">
	<g>
		<polygon fill="none" points="0,0 100,0 100,-75 0,-75 		"/>
		<polygon points="50,-37.5 0,-37.5 0,-75 50,-75 		"/>
		<polygon points="100,0 50,0 50,-37.5 100,-37.5 		"/>
		<polygon fill="#FFFFFF" points="50,0 0,0 0,-37.5 50,-37.5 		"/>
		<polygon fill="#FFFFFF" points="100,-37.5 50,-37.5 50,-75 100,-75 		"/>
	</g>
</pattern>
<rect x="2470.023" y="346.027" fill="#FFFFFF" stroke="#000000" stroke-miterlimit="10" width="0" height="0"/>
<rect x="2470.024" y="346.027" display="none" fill="#FFFFFF" stroke="#000000" stroke-miterlimit="10" width="1920" height="1080"/>
<g display="none">
	<rect x="2583.69" y="460.36" display="inline" width="50" height="50"/>
	<rect x="2633.69" y="510.36" display="inline" width="50" height="50"/>
	<rect x="2583.69" y="510.36" display="inline" fill="#FFFFFF" width="50" height="50"/>
	<rect x="2633.69" y="460.36" display="inline" fill="#FFFFFF" width="50" height="50"/>
</g>
<pattern  id="SVGID_1_" xlink:href="#New_Pattern_Swatch_2" patternTransform="matrix(1 0 0 1 1406 75)">
</pattern>
<rect x="2479.434" y="829.412" opacity="0.5" fill="url(#SVGID_1_)" width="1917.543" height="730.055"/>
<g>
	<rect x="2915.667" y="444.521" fill="#322C1E" width="3" height="9"/>
	<line fill="#322C1E" x1="2915.667" y1="446.022" x2="2918.667" y2="446.022"/>
	<line fill="#322C1E" x1="2915.667" y1="447.521" x2="2918.667" y2="447.521"/>
	<line fill="#322C1E" x1="2915.667" y1="449.021" x2="2918.667" y2="449.021"/>
	<line fill="#322C1E" x1="2915.667" y1="450.522" x2="2918.667" y2="450.522"/>
	<line fill="#322C1E" x1="2915.667" y1="452.021" x2="2918.667" y2="452.021"/>
	<line fill="#322C1E" x1="2918.167" y1="453.521" x2="2918.167" y2="444.521"/>
	<line fill="#322C1E" x1="2917.667" y1="453.521" x2="2917.667" y2="444.521"/>
	<line fill="#322C1E" x1="2917.167" y1="453.521" x2="2917.167" y2="444.521"/>
	<line fill="#322C1E" x1="2916.667" y1="453.521" x2="2916.667" y2="444.521"/>
	<line fill="#322C1E" x1="2916.167" y1="453.521" x2="2916.167" y2="444.521"/>
</g>
<rect x="0.5" y="231.781" fill="#FFFFFF" stroke="#000000" stroke-miterlimit="10" width="2226.223" height="1977.197"/>
<g>
	<rect x="2924.65" y="494.416" fill="#8C6239" width="1154.165" height="339.471"/>
	<g>
		<polygon fill="#694A2B" points="4293.063,931.017 4073.464,834.232 4073.464,505.9 4293.063,602.685 		"/>
		<rect x="2920.538" y="365.027" fill="#422309" width="1154.165" height="141.388"/>
		<rect x="4291.063" y="365.027" fill="#422309" width="228.171" height="1213.439"/>
		<polygon fill="#422309" points="4293.063,610.609 4073.464,510.767 4073.464,365.027 4293.063,365.027 		"/>
		<polygon fill="#694A2B" points="2706.194,930.815 2925.794,833.313 2925.794,502.549 2706.194,600.05 		"/>
		<rect x="2478.023" y="365.027" fill="#422309" width="228.171" height="1213.439"/>
		<polygon fill="#422309" points="2704.194,610.609 2923.794,510.767 2923.794,365.027 2704.194,365.027 		"/>
	</g>
</g>
<g>
	<g>
		<g>
			<polygon fill="#322C1E" points="3488.916,775.87 3484.678,737.804 3498.745,737.804 3495.107,775.87 			"/>
			<polygon fill="#007F66" points="3489.746,774.614 3486.766,739.06 3496.658,739.06 3494.1,774.614 			"/>
		</g>
		<g>
			<polygon fill="#322C1E" points="3507.891,775.869 3503.652,737.802 3517.719,737.802 3514.082,775.869 			"/>
			<polygon fill="#C1272D" points="3508.721,774.613 3505.739,739.059 3515.632,739.059 3513.074,774.613 			"/>
		</g>
		<g>
			<polygon fill="#322C1E" points="3528.215,775.869 3523.977,737.802 3538.043,737.802 3534.406,775.869 			"/>
			<polygon fill="#1B1464" points="3529.045,774.613 3526.063,739.059 3535.956,739.059 3533.398,774.613 			"/>
		</g>
		<g>
			<polygon fill="#322C1E" points="3547.189,775.869 3542.949,737.804 3557.018,737.804 3553.38,775.869 			"/>
			<polygon fill="#006837" points="3548.019,774.614 3545.037,739.06 3554.93,739.06 3552.372,774.614 			"/>
		</g>
	</g>
	<g>
		<rect x="3358.994" y="773.908" fill="#603813" width="322.026" height="58.293"/>
		<rect x="3263.84" y="826.799" fill="#482A0E" width="512.334" height="81.228"/>
		<rect x="3263.262" y="698.785" fill="#603813" width="96.836" height="128.512"/>
		<rect x="3679.34" y="698.408" fill="#603813" width="96.834" height="128.512"/>
	</g>
	<g>
		<rect x="3356.588" y="520.416" fill="none" stroke="#322C1E" stroke-miterlimit="10" width="3.246" height="0"/>
		<line fill="none" stroke="#322C1E" stroke-miterlimit="10" x1="3359.834" y1="520.416" x2="3356.588" y2="520.416"/>
		<line fill="none" stroke="#322C1E" stroke-miterlimit="10" x1="3359.834" y1="520.416" x2="3356.588" y2="520.416"/>
		<line fill="none" stroke="#322C1E" stroke-miterlimit="10" x1="3359.834" y1="520.416" x2="3356.588" y2="520.416"/>
		<line fill="none" stroke="#322C1E" stroke-miterlimit="10" x1="3359.834" y1="520.416" x2="3356.588" y2="520.416"/>
		<line fill="none" stroke="#322C1E" stroke-miterlimit="10" x1="3359.834" y1="520.416" x2="3356.588" y2="520.416"/>
		<line fill="none" stroke="#322C1E" stroke-miterlimit="10" x1="3357.129" y1="520.416" x2="3357.129" y2="520.416"/>
		<line fill="none" stroke="#322C1E" stroke-miterlimit="10" x1="3357.67" y1="520.416" x2="3357.67" y2="520.416"/>
		<line fill="none" stroke="#322C1E" stroke-miterlimit="10" x1="3358.211" y1="520.416" x2="3358.211" y2="520.416"/>
		<line fill="none" stroke="#322C1E" stroke-miterlimit="10" x1="3358.752" y1="520.416" x2="3358.752" y2="520.416"/>
		<line fill="none" stroke="#322C1E" stroke-miterlimit="10" x1="3359.293" y1="520.416" x2="3359.293" y2="520.416"/>
	</g>
	<g>
		<rect x="3303.104" y="576.446" fill="#603813" width="429.027" height="9.056"/>
		<rect x="3303.104" y="618.706" fill="#603813" width="429.027" height="9.056"/>
		<rect x="3303.104" y="663.984" fill="#603813" width="429.027" height="9.057"/>
		<g>
			<path fill="#7E8C8A" stroke="#000000" stroke-miterlimit="10" d="M3402.73,553.252v17.315c0,1.713-1.393,3.102-3.105,3.102h-9.84
				c-1.714,0-3.105-1.389-3.105-3.102v-17.315c0-1.714,1.392-3.102,3.105-3.102h2.977v-10.817h3.932v10.817h2.932
				C3401.338,550.151,3402.73,551.539,3402.73,553.252z"/>
			<path fill="#7E8C8A" stroke="#000000" stroke-miterlimit="10" d="M3432.16,556.029v17.315c0,1.713-1.393,3.102-3.105,3.102
				h-9.841c-1.713,0-3.104-1.389-3.104-3.102v-17.315c0-1.713,1.392-3.102,3.104-3.102h2.978V542.11h3.932v10.817h2.932
				C3430.768,552.927,3432.16,554.316,3432.16,556.029z"/>
			<path fill="#7E8C8A" stroke="#000000" stroke-miterlimit="10" d="M3461.023,556.029v17.315c0,1.713-1.393,3.102-3.105,3.102
				h-9.84c-1.713,0-3.105-1.389-3.105-3.102v-17.315c0-1.713,1.393-3.102,3.105-3.102h2.977V542.11h3.932v10.817h2.932
				C3459.631,552.927,3461.023,554.316,3461.023,556.029z"/>
			<path fill="#7E8C8A" stroke="#000000" stroke-miterlimit="10" d="M3490.453,556.029v17.315c0,1.713-1.393,3.102-3.105,3.102
				h-9.841c-1.713,0-3.104-1.389-3.104-3.102v-17.315c0-1.713,1.392-3.102,3.104-3.102h2.978V542.11h3.932v10.817h2.932
				C3489.061,552.927,3490.453,554.316,3490.453,556.029z"/>
			<path fill="#7E8C8A" stroke="#000000" stroke-miterlimit="10" d="M3513.092,556.029v17.315c0,1.713-1.393,3.102-3.105,3.102
				h-9.841c-1.714,0-3.105-1.389-3.105-3.102v-17.315c0-1.713,1.392-3.102,3.105-3.102h2.978V542.11h3.932v10.817h2.932
				C3511.699,552.927,3513.092,554.316,3513.092,556.029z"/>
			<path fill="#7E8C8A" stroke="#000000" stroke-miterlimit="10" d="M3542.521,556.029v17.315c0,1.713-1.392,3.102-3.104,3.102
				h-9.842c-1.713,0-3.105-1.389-3.105-3.102v-17.315c0-1.713,1.393-3.102,3.105-3.102h2.978V542.11h3.932v10.817h2.933
				C3541.129,552.927,3542.521,554.316,3542.521,556.029z"/>
			<path fill="#7E8C8A" stroke="#000000" stroke-miterlimit="10" d="M3571.385,556.029v17.315c0,1.713-1.393,3.102-3.105,3.102
				h-9.841c-1.714,0-3.105-1.389-3.105-3.102v-17.315c0-1.713,1.392-3.102,3.105-3.102h2.978V542.11h3.932v10.817h2.932
				C3569.992,552.927,3571.385,554.316,3571.385,556.029z"/>
			<path fill="#7E8C8A" stroke="#000000" stroke-miterlimit="10" d="M3600.814,556.029v17.315c0,1.713-1.393,3.102-3.105,3.102
				h-9.841c-1.714,0-3.106-1.389-3.106-3.102v-17.315c0-1.713,1.393-3.102,3.106-3.102h2.978V542.11h3.932v10.817h2.932
				C3599.422,552.927,3600.814,554.316,3600.814,556.029z"/>
			<path fill="#7E8C8A" stroke="#000000" stroke-miterlimit="10" d="M3625.586,556.029v17.315c0,1.713-1.393,3.102-3.105,3.102
				h-9.84c-1.713,0-3.105-1.389-3.105-3.102v-17.315c0-1.713,1.393-3.102,3.105-3.102h2.977V542.11h3.932v10.817h2.932
				C3624.193,552.927,3625.586,554.316,3625.586,556.029z"/>
			<path fill="#7E8C8A" stroke="#000000" stroke-miterlimit="10" d="M3655.016,556.029v17.315c0,1.713-1.393,3.102-3.105,3.102
				h-9.84c-1.713,0-3.105-1.389-3.105-3.102v-17.315c0-1.713,1.393-3.102,3.105-3.102h2.977V542.11h3.932v10.817h2.932
				C3653.623,552.927,3655.016,554.316,3655.016,556.029z"/>
		</g>
		<g>
			<path fill="#2A5621" stroke="#000000" stroke-miterlimit="10" d="M3402.73,599.421v17.314c0,1.713-1.393,3.102-3.105,3.102h-9.84
				c-1.714,0-3.105-1.389-3.105-3.102v-17.314c0-1.713,1.392-3.102,3.105-3.102h2.977v-10.818h3.932v10.818h2.932
				C3401.338,596.32,3402.73,597.708,3402.73,599.421z"/>
			<path fill="#2A5621" stroke="#000000" stroke-miterlimit="10" d="M3432.16,599.421v17.314c0,1.713-1.393,3.102-3.105,3.102
				h-9.841c-1.713,0-3.104-1.389-3.104-3.102v-17.314c0-1.713,1.392-3.102,3.104-3.102h2.978v-10.818h3.932v10.818h2.932
				C3430.768,596.32,3432.16,597.708,3432.16,599.421z"/>
			<path fill="#2A5621" stroke="#000000" stroke-miterlimit="10" d="M3461.023,599.421v17.314c0,1.713-1.393,3.102-3.105,3.102
				h-9.84c-1.713,0-3.105-1.389-3.105-3.102v-17.314c0-1.713,1.393-3.102,3.105-3.102h2.977v-10.818h3.932v10.818h2.932
				C3459.631,596.32,3461.023,597.708,3461.023,599.421z"/>
			<path fill="#2A5621" stroke="#000000" stroke-miterlimit="10" d="M3490.453,599.421v17.314c0,1.713-1.393,3.102-3.105,3.102
				h-9.841c-1.713,0-3.104-1.389-3.104-3.102v-17.314c0-1.713,1.392-3.102,3.104-3.102h2.978v-10.818h3.932v10.818h2.932
				C3489.061,596.32,3490.453,597.708,3490.453,599.421z"/>
			<path fill="#2A5621" stroke="#000000" stroke-miterlimit="10" d="M3513.092,599.421v17.314c0,1.713-1.393,3.102-3.105,3.102
				h-9.841c-1.714,0-3.105-1.389-3.105-3.102v-17.314c0-1.713,1.392-3.102,3.105-3.102h2.978v-10.818h3.932v10.818h2.932
				C3511.699,596.32,3513.092,597.708,3513.092,599.421z"/>
			<path fill="#2A5621" stroke="#000000" stroke-miterlimit="10" d="M3542.521,599.421v17.314c0,1.713-1.392,3.102-3.104,3.102
				h-9.842c-1.713,0-3.105-1.389-3.105-3.102v-17.314c0-1.713,1.393-3.102,3.105-3.102h2.978v-10.818h3.932v10.818h2.933
				C3541.129,596.32,3542.521,597.708,3542.521,599.421z"/>
			<path fill="#2A5621" stroke="#000000" stroke-miterlimit="10" d="M3571.385,599.421v17.314c0,1.713-1.393,3.102-3.105,3.102
				h-9.841c-1.714,0-3.105-1.389-3.105-3.102v-17.314c0-1.713,1.392-3.102,3.105-3.102h2.978v-10.818h3.932v10.818h2.932
				C3569.992,596.32,3571.385,597.708,3571.385,599.421z"/>
			<path fill="#2A5621" stroke="#000000" stroke-miterlimit="10" d="M3600.814,599.421v17.314c0,1.713-1.393,3.102-3.105,3.102
				h-9.841c-1.714,0-3.106-1.389-3.106-3.102v-17.314c0-1.713,1.393-3.102,3.106-3.102h2.978v-10.818h3.932v10.818h2.932
				C3599.422,596.32,3600.814,597.708,3600.814,599.421z"/>
			<path fill="#2A5621" stroke="#000000" stroke-miterlimit="10" d="M3625.586,599.421v17.314c0,1.713-1.393,3.102-3.105,3.102
				h-9.84c-1.713,0-3.105-1.389-3.105-3.102v-17.314c0-1.713,1.393-3.102,3.105-3.102h2.977v-10.818h3.932v10.818h2.932
				C3624.193,596.32,3625.586,597.708,3625.586,599.421z"/>
			<path fill="#2A5621" stroke="#000000" stroke-miterlimit="10" d="M3655.016,599.421v17.314c0,1.713-1.393,3.102-3.105,3.102
				h-9.84c-1.713,0-3.105-1.389-3.105-3.102v-17.314c0-1.713,1.393-3.102,3.105-3.102h2.977v-10.818h3.932v10.818h2.932
				C3653.623,596.32,3655.016,597.708,3655.016,599.421z"/>
		</g>
		<g>
			<path fill="#617F5F" stroke="#000000" stroke-miterlimit="10" d="M3402.73,643.568v17.314c0,1.713-1.393,3.102-3.105,3.102h-9.84
				c-1.714,0-3.105-1.389-3.105-3.102v-17.314c0-1.713,1.392-3.102,3.105-3.102h2.977v-10.818h3.932v10.818h2.932
				C3401.338,640.466,3402.73,641.855,3402.73,643.568z"/>
			<path fill="#617F5F" stroke="#000000" stroke-miterlimit="10" d="M3432.16,643.568v17.314c0,1.713-1.393,3.102-3.105,3.102
				h-9.841c-1.713,0-3.104-1.389-3.104-3.102v-17.314c0-1.713,1.392-3.102,3.104-3.102h2.978v-10.818h3.932v10.818h2.932
				C3430.768,640.466,3432.16,641.855,3432.16,643.568z"/>
			<path fill="#617F5F" stroke="#000000" stroke-miterlimit="10" d="M3461.023,643.568v17.314c0,1.713-1.393,3.102-3.105,3.102
				h-9.84c-1.713,0-3.105-1.389-3.105-3.102v-17.314c0-1.713,1.393-3.102,3.105-3.102h2.977v-10.818h3.932v10.818h2.932
				C3459.631,640.466,3461.023,641.855,3461.023,643.568z"/>
			<path fill="#617F5F" stroke="#000000" stroke-miterlimit="10" d="M3490.453,643.568v17.314c0,1.713-1.393,3.102-3.105,3.102
				h-9.841c-1.713,0-3.104-1.389-3.104-3.102v-17.314c0-1.713,1.392-3.102,3.104-3.102h2.978v-10.818h3.932v10.818h2.932
				C3489.061,640.466,3490.453,641.855,3490.453,643.568z"/>
			<path fill="#617F5F" stroke="#000000" stroke-miterlimit="10" d="M3513.092,643.568v17.314c0,1.713-1.393,3.102-3.105,3.102
				h-9.841c-1.714,0-3.105-1.389-3.105-3.102v-17.314c0-1.713,1.392-3.102,3.105-3.102h2.978v-10.818h3.932v10.818h2.932
				C3511.699,640.466,3513.092,641.855,3513.092,643.568z"/>
			<path fill="#617F5F" stroke="#000000" stroke-miterlimit="10" d="M3542.521,643.568v17.314c0,1.713-1.392,3.102-3.104,3.102
				h-9.842c-1.713,0-3.105-1.389-3.105-3.102v-17.314c0-1.713,1.393-3.102,3.105-3.102h2.978v-10.818h3.932v10.818h2.933
				C3541.129,640.466,3542.521,641.855,3542.521,643.568z"/>
			<path fill="#617F5F" stroke="#000000" stroke-miterlimit="10" d="M3571.385,643.568v17.314c0,1.713-1.393,3.102-3.105,3.102
				h-9.841c-1.714,0-3.105-1.389-3.105-3.102v-17.314c0-1.713,1.392-3.102,3.105-3.102h2.978v-10.818h3.932v10.818h2.932
				C3569.992,640.466,3571.385,641.855,3571.385,643.568z"/>
			<path fill="#617F5F" stroke="#000000" stroke-miterlimit="10" d="M3600.814,643.568v17.314c0,1.713-1.393,3.102-3.105,3.102
				h-9.841c-1.714,0-3.106-1.389-3.106-3.102v-17.314c0-1.713,1.393-3.102,3.106-3.102h2.978v-10.818h3.932v10.818h2.932
				C3599.422,640.466,3600.814,641.855,3600.814,643.568z"/>
			<path fill="#617F5F" stroke="#000000" stroke-miterlimit="10" d="M3625.586,643.568v17.314c0,1.713-1.393,3.102-3.105,3.102
				h-9.84c-1.713,0-3.105-1.389-3.105-3.102v-17.314c0-1.713,1.393-3.102,3.105-3.102h2.977v-10.818h3.932v10.818h2.932
				C3624.193,640.466,3625.586,641.855,3625.586,643.568z"/>
			<path fill="#617F5F" stroke="#000000" stroke-miterlimit="10" d="M3655.016,643.568v17.314c0,1.713-1.393,3.102-3.105,3.102
				h-9.84c-1.713,0-3.105-1.389-3.105-3.102v-17.314c0-1.713,1.393-3.102,3.105-3.102h2.977v-10.818h3.932v10.818h2.932
				C3653.623,640.466,3655.016,641.855,3655.016,643.568z"/>
		</g>
	</g>
</g>
<pattern  id="SVGID_2_" xlink:href="#New_Pattern_Swatch_2" patternTransform="matrix(1 0 0 1 1476 117)">
</pattern>
<rect x="6944.018" fill="url(#SVGID_2_)" width="1917.543" height="730.055"/>
<g>
	<g>
		<g>
			<polygon fill="#322C1E" points="5763.83,919.605 5759.592,881.54 5773.659,881.54 5770.021,919.605 			"/>
			<polygon fill="#007F66" points="5764.66,918.349 5761.68,882.795 5771.572,882.795 5769.014,918.349 			"/>
		</g>
		<g>
			<polygon fill="#322C1E" points="5782.805,919.604 5778.566,881.538 5792.633,881.538 5788.996,919.604 			"/>
			<polygon fill="#C1272D" points="5783.635,918.348 5780.653,882.794 5790.546,882.794 5787.988,918.348 			"/>
		</g>
		<g>
			<polygon fill="#322C1E" points="5803.129,919.604 5798.891,881.538 5812.957,881.538 5809.32,919.604 			"/>
			<polygon fill="#1B1464" points="5803.959,918.348 5800.978,882.794 5810.87,882.794 5808.313,918.348 			"/>
		</g>
		<g>
			<polygon fill="#322C1E" points="5822.104,919.604 5817.863,881.54 5831.932,881.54 5828.294,919.604 			"/>
			<polygon fill="#006837" points="5822.933,918.349 5819.951,882.795 5829.844,882.795 5827.286,918.349 			"/>
		</g>
	</g>
	<g>
		<rect x="5633.908" y="917.643" fill="#603813" width="322.026" height="58.293"/>
		<rect x="5538.754" y="970.535" fill="#482A0E" width="512.334" height="81.228"/>
		<rect x="5538.176" y="842.52" fill="#603813" width="96.836" height="128.512"/>
		<rect x="5954.254" y="842.143" fill="#603813" width="96.834" height="128.512"/>
	</g>
	<g>
		<rect x="5631.502" y="664.151" fill="none" stroke="#322C1E" stroke-miterlimit="10" width="3.246" height="0"/>
		<line fill="none" stroke="#322C1E" stroke-miterlimit="10" x1="5634.748" y1="664.151" x2="5631.502" y2="664.151"/>
		<line fill="none" stroke="#322C1E" stroke-miterlimit="10" x1="5634.748" y1="664.151" x2="5631.502" y2="664.151"/>
		<line fill="none" stroke="#322C1E" stroke-miterlimit="10" x1="5634.748" y1="664.151" x2="5631.502" y2="664.151"/>
		<line fill="none" stroke="#322C1E" stroke-miterlimit="10" x1="5634.748" y1="664.151" x2="5631.502" y2="664.151"/>
		<line fill="none" stroke="#322C1E" stroke-miterlimit="10" x1="5634.748" y1="664.151" x2="5631.502" y2="664.151"/>
		<line fill="none" stroke="#322C1E" stroke-miterlimit="10" x1="5632.043" y1="664.151" x2="5632.043" y2="664.151"/>
		<line fill="none" stroke="#322C1E" stroke-miterlimit="10" x1="5632.584" y1="664.151" x2="5632.584" y2="664.151"/>
		<line fill="none" stroke="#322C1E" stroke-miterlimit="10" x1="5633.125" y1="664.151" x2="5633.125" y2="664.151"/>
		<line fill="none" stroke="#322C1E" stroke-miterlimit="10" x1="5633.666" y1="664.151" x2="5633.666" y2="664.151"/>
		<line fill="none" stroke="#322C1E" stroke-miterlimit="10" x1="5634.207" y1="664.151" x2="5634.207" y2="664.151"/>
	</g>
	<g>
		<rect x="5578.018" y="720.181" fill="#603813" width="429.027" height="9.056"/>
		<rect x="5578.018" y="762.441" fill="#603813" width="429.027" height="9.056"/>
		<rect x="5578.018" y="807.719" fill="#603813" width="429.027" height="9.057"/>
		<g>
			<path fill="#7E8C8A" stroke="#000000" stroke-miterlimit="10" d="M5677.645,696.988v17.315c0,1.713-1.393,3.102-3.105,3.102
				h-9.84c-1.714,0-3.105-1.389-3.105-3.102v-17.315c0-1.714,1.392-3.102,3.105-3.102h2.977v-10.817h3.932v10.817h2.932
				C5676.252,693.886,5677.645,695.274,5677.645,696.988z"/>
			<path fill="#7E8C8A" stroke="#000000" stroke-miterlimit="10" d="M5707.074,699.764v17.315c0,1.713-1.393,3.102-3.105,3.102
				h-9.841c-1.713,0-3.104-1.389-3.104-3.102v-17.315c0-1.713,1.392-3.102,3.104-3.102h2.978v-10.817h3.932v10.817h2.932
				C5705.682,696.663,5707.074,698.051,5707.074,699.764z"/>
			<path fill="#7E8C8A" stroke="#000000" stroke-miterlimit="10" d="M5735.938,699.764v17.315c0,1.713-1.393,3.102-3.105,3.102
				h-9.84c-1.713,0-3.105-1.389-3.105-3.102v-17.315c0-1.713,1.393-3.102,3.105-3.102h2.977v-10.817h3.932v10.817h2.932
				C5734.545,696.663,5735.938,698.051,5735.938,699.764z"/>
			<path fill="#7E8C8A" stroke="#000000" stroke-miterlimit="10" d="M5765.367,699.764v17.315c0,1.713-1.393,3.102-3.105,3.102
				h-9.841c-1.713,0-3.104-1.389-3.104-3.102v-17.315c0-1.713,1.392-3.102,3.104-3.102h2.978v-10.817h3.932v10.817h2.932
				C5763.975,696.663,5765.367,698.051,5765.367,699.764z"/>
			<path fill="#7E8C8A" stroke="#000000" stroke-miterlimit="10" d="M5788.006,699.764v17.315c0,1.713-1.393,3.102-3.105,3.102
				h-9.841c-1.714,0-3.105-1.389-3.105-3.102v-17.315c0-1.713,1.392-3.102,3.105-3.102h2.978v-10.817h3.932v10.817h2.932
				C5786.613,696.663,5788.006,698.051,5788.006,699.764z"/>
			<path fill="#7E8C8A" stroke="#000000" stroke-miterlimit="10" d="M5817.435,699.764v17.315c0,1.713-1.392,3.102-3.104,3.102
				h-9.842c-1.713,0-3.105-1.389-3.105-3.102v-17.315c0-1.713,1.393-3.102,3.105-3.102h2.978v-10.817h3.932v10.817h2.933
				C5816.043,696.663,5817.435,698.051,5817.435,699.764z"/>
			<path fill="#7E8C8A" stroke="#000000" stroke-miterlimit="10" d="M5846.299,699.764v17.315c0,1.713-1.393,3.102-3.105,3.102
				h-9.841c-1.714,0-3.105-1.389-3.105-3.102v-17.315c0-1.713,1.392-3.102,3.105-3.102h2.978v-10.817h3.932v10.817h2.932
				C5844.906,696.663,5846.299,698.051,5846.299,699.764z"/>
			<path fill="#7E8C8A" stroke="#000000" stroke-miterlimit="10" d="M5875.729,699.764v17.315c0,1.713-1.393,3.102-3.105,3.102
				h-9.841c-1.714,0-3.106-1.389-3.106-3.102v-17.315c0-1.713,1.393-3.102,3.106-3.102h2.978v-10.817h3.932v10.817h2.932
				C5874.336,696.663,5875.729,698.051,5875.729,699.764z"/>
			<path fill="#7E8C8A" stroke="#000000" stroke-miterlimit="10" d="M5900.5,699.764v17.315c0,1.713-1.393,3.102-3.105,3.102h-9.84
				c-1.713,0-3.105-1.389-3.105-3.102v-17.315c0-1.713,1.393-3.102,3.105-3.102h2.977v-10.817h3.932v10.817h2.932
				C5899.107,696.663,5900.5,698.051,5900.5,699.764z"/>
			<path fill="#7E8C8A" stroke="#000000" stroke-miterlimit="10" d="M5929.93,699.764v17.315c0,1.713-1.393,3.102-3.105,3.102h-9.84
				c-1.713,0-3.105-1.389-3.105-3.102v-17.315c0-1.713,1.393-3.102,3.105-3.102h2.977v-10.817h3.932v10.817h2.932
				C5928.537,696.663,5929.93,698.051,5929.93,699.764z"/>
		</g>
		<g>
			<path fill="#2A5621" stroke="#000000" stroke-miterlimit="10" d="M5677.645,743.157v17.314c0,1.713-1.393,3.102-3.105,3.102
				h-9.84c-1.714,0-3.105-1.389-3.105-3.102v-17.314c0-1.713,1.392-3.102,3.105-3.102h2.977v-10.818h3.932v10.818h2.932
				C5676.252,740.055,5677.645,741.444,5677.645,743.157z"/>
			<path fill="#2A5621" stroke="#000000" stroke-miterlimit="10" d="M5707.074,743.157v17.314c0,1.713-1.393,3.102-3.105,3.102
				h-9.841c-1.713,0-3.104-1.389-3.104-3.102v-17.314c0-1.713,1.392-3.102,3.104-3.102h2.978v-10.818h3.932v10.818h2.932
				C5705.682,740.055,5707.074,741.444,5707.074,743.157z"/>
			<path fill="#2A5621" stroke="#000000" stroke-miterlimit="10" d="M5735.938,743.157v17.314c0,1.713-1.393,3.102-3.105,3.102
				h-9.84c-1.713,0-3.105-1.389-3.105-3.102v-17.314c0-1.713,1.393-3.102,3.105-3.102h2.977v-10.818h3.932v10.818h2.932
				C5734.545,740.055,5735.938,741.444,5735.938,743.157z"/>
			<path fill="#2A5621" stroke="#000000" stroke-miterlimit="10" d="M5765.367,743.157v17.314c0,1.713-1.393,3.102-3.105,3.102
				h-9.841c-1.713,0-3.104-1.389-3.104-3.102v-17.314c0-1.713,1.392-3.102,3.104-3.102h2.978v-10.818h3.932v10.818h2.932
				C5763.975,740.055,5765.367,741.444,5765.367,743.157z"/>
			<path fill="#2A5621" stroke="#000000" stroke-miterlimit="10" d="M5788.006,743.157v17.314c0,1.713-1.393,3.102-3.105,3.102
				h-9.841c-1.714,0-3.105-1.389-3.105-3.102v-17.314c0-1.713,1.392-3.102,3.105-3.102h2.978v-10.818h3.932v10.818h2.932
				C5786.613,740.055,5788.006,741.444,5788.006,743.157z"/>
			<path fill="#2A5621" stroke="#000000" stroke-miterlimit="10" d="M5817.435,743.157v17.314c0,1.713-1.392,3.102-3.104,3.102
				h-9.842c-1.713,0-3.105-1.389-3.105-3.102v-17.314c0-1.713,1.393-3.102,3.105-3.102h2.978v-10.818h3.932v10.818h2.933
				C5816.043,740.055,5817.435,741.444,5817.435,743.157z"/>
			<path fill="#2A5621" stroke="#000000" stroke-miterlimit="10" d="M5846.299,743.157v17.314c0,1.713-1.393,3.102-3.105,3.102
				h-9.841c-1.714,0-3.105-1.389-3.105-3.102v-17.314c0-1.713,1.392-3.102,3.105-3.102h2.978v-10.818h3.932v10.818h2.932
				C5844.906,740.055,5846.299,741.444,5846.299,743.157z"/>
			<path fill="#2A5621" stroke="#000000" stroke-miterlimit="10" d="M5875.729,743.157v17.314c0,1.713-1.393,3.102-3.105,3.102
				h-9.841c-1.714,0-3.106-1.389-3.106-3.102v-17.314c0-1.713,1.393-3.102,3.106-3.102h2.978v-10.818h3.932v10.818h2.932
				C5874.336,740.055,5875.729,741.444,5875.729,743.157z"/>
			<path fill="#2A5621" stroke="#000000" stroke-miterlimit="10" d="M5900.5,743.157v17.314c0,1.713-1.393,3.102-3.105,3.102h-9.84
				c-1.713,0-3.105-1.389-3.105-3.102v-17.314c0-1.713,1.393-3.102,3.105-3.102h2.977v-10.818h3.932v10.818h2.932
				C5899.107,740.055,5900.5,741.444,5900.5,743.157z"/>
			<path fill="#2A5621" stroke="#000000" stroke-miterlimit="10" d="M5929.93,743.157v17.314c0,1.713-1.393,3.102-3.105,3.102h-9.84
				c-1.713,0-3.105-1.389-3.105-3.102v-17.314c0-1.713,1.393-3.102,3.105-3.102h2.977v-10.818h3.932v10.818h2.932
				C5928.537,740.055,5929.93,741.444,5929.93,743.157z"/>
		</g>
		<g>
			<path fill="#617F5F" stroke="#000000" stroke-miterlimit="10" d="M5677.645,787.303v17.314c0,1.713-1.393,3.102-3.105,3.102
				h-9.84c-1.714,0-3.105-1.389-3.105-3.102v-17.314c0-1.713,1.392-3.102,3.105-3.102h2.977v-10.818h3.932v10.818h2.932
				C5676.252,784.202,5677.645,785.59,5677.645,787.303z"/>
			<path fill="#617F5F" stroke="#000000" stroke-miterlimit="10" d="M5707.074,787.303v17.314c0,1.713-1.393,3.102-3.105,3.102
				h-9.841c-1.713,0-3.104-1.389-3.104-3.102v-17.314c0-1.713,1.392-3.102,3.104-3.102h2.978v-10.818h3.932v10.818h2.932
				C5705.682,784.202,5707.074,785.59,5707.074,787.303z"/>
			<path fill="#617F5F" stroke="#000000" stroke-miterlimit="10" d="M5735.938,787.303v17.314c0,1.713-1.393,3.102-3.105,3.102
				h-9.84c-1.713,0-3.105-1.389-3.105-3.102v-17.314c0-1.713,1.393-3.102,3.105-3.102h2.977v-10.818h3.932v10.818h2.932
				C5734.545,784.202,5735.938,785.59,5735.938,787.303z"/>
			<path fill="#617F5F" stroke="#000000" stroke-miterlimit="10" d="M5765.367,787.303v17.314c0,1.713-1.393,3.102-3.105,3.102
				h-9.841c-1.713,0-3.104-1.389-3.104-3.102v-17.314c0-1.713,1.392-3.102,3.104-3.102h2.978v-10.818h3.932v10.818h2.932
				C5763.975,784.202,5765.367,785.59,5765.367,787.303z"/>
			<path fill="#617F5F" stroke="#000000" stroke-miterlimit="10" d="M5788.006,787.303v17.314c0,1.713-1.393,3.102-3.105,3.102
				h-9.841c-1.714,0-3.105-1.389-3.105-3.102v-17.314c0-1.713,1.392-3.102,3.105-3.102h2.978v-10.818h3.932v10.818h2.932
				C5786.613,784.202,5788.006,785.59,5788.006,787.303z"/>
			<path fill="#617F5F" stroke="#000000" stroke-miterlimit="10" d="M5817.435,787.303v17.314c0,1.713-1.392,3.102-3.104,3.102
				h-9.842c-1.713,0-3.105-1.389-3.105-3.102v-17.314c0-1.713,1.393-3.102,3.105-3.102h2.978v-10.818h3.932v10.818h2.933
				C5816.043,784.202,5817.435,785.59,5817.435,787.303z"/>
			<path fill="#617F5F" stroke="#000000" stroke-miterlimit="10" d="M5846.299,787.303v17.314c0,1.713-1.393,3.102-3.105,3.102
				h-9.841c-1.714,0-3.105-1.389-3.105-3.102v-17.314c0-1.713,1.392-3.102,3.105-3.102h2.978v-10.818h3.932v10.818h2.932
				C5844.906,784.202,5846.299,785.59,5846.299,787.303z"/>
			<path fill="#617F5F" stroke="#000000" stroke-miterlimit="10" d="M5875.729,787.303v17.314c0,1.713-1.393,3.102-3.105,3.102
				h-9.841c-1.714,0-3.106-1.389-3.106-3.102v-17.314c0-1.713,1.393-3.102,3.106-3.102h2.978v-10.818h3.932v10.818h2.932
				C5874.336,784.202,5875.729,785.59,5875.729,787.303z"/>
			<path fill="#617F5F" stroke="#000000" stroke-miterlimit="10" d="M5900.5,787.303v17.314c0,1.713-1.393,3.102-3.105,3.102h-9.84
				c-1.713,0-3.105-1.389-3.105-3.102v-17.314c0-1.713,1.393-3.102,3.105-3.102h2.977v-10.818h3.932v10.818h2.932
				C5899.107,784.202,5900.5,785.59,5900.5,787.303z"/>
			<path fill="#617F5F" stroke="#000000" stroke-miterlimit="10" d="M5929.93,787.303v17.314c0,1.713-1.393,3.102-3.105,3.102h-9.84
				c-1.713,0-3.105-1.389-3.105-3.102v-17.314c0-1.713,1.393-3.102,3.105-3.102h2.977v-10.818h3.932v10.818h2.932
				C5928.537,784.202,5929.93,785.59,5929.93,787.303z"/>
		</g>
	</g>
</g>
<g>
	
		<rect x="731.022" y="599.028" fill="none" stroke="#000000" stroke-width="2" stroke-miterlimit="10" width="163.333" height="118.667"/>
	
		<rect x="743.022" y="727.694" fill="none" stroke="#000000" stroke-width="2" stroke-miterlimit="10" width="133.333" height="90.667"/>
	<polygon fill="none" stroke="#000000" stroke-width="2" stroke-miterlimit="10" points="882.456,824.316 809.689,879.027 
		736.922,824.316 	"/>
	<circle fill="none" stroke="#000000" stroke-width="2" stroke-miterlimit="10" cx="736.922" cy="619.038" r="23.333"/>
	<circle fill="none" stroke="#000000" stroke-width="2" stroke-miterlimit="10" cx="894.356" cy="619.038" r="23.333"/>
	<ellipse fill="none" stroke="#000000" stroke-width="2" stroke-miterlimit="10" cx="757.022" cy="955.694" rx="31.334" ry="101"/>
	<ellipse fill="none" stroke="#000000" stroke-width="2" stroke-miterlimit="10" cx="858.805" cy="955.694" rx="31.334" ry="101"/>
	<ellipse fill="none" stroke="#000000" stroke-width="2" stroke-miterlimit="10" cx="757.022" cy="1094.352" rx="31.334" ry="101"/>
	<ellipse fill="none" stroke="#000000" stroke-width="2" stroke-miterlimit="10" cx="858.805" cy="1094.352" rx="31.334" ry="101"/>
	
		<ellipse fill="none" stroke="#000000" stroke-width="2" stroke-miterlimit="10" cx="704.353" cy="713.032" rx="16.667" ry="81.333"/>
	
		<ellipse fill="none" stroke="#000000" stroke-width="2" stroke-miterlimit="10" cx="924.561" cy="713.032" rx="16.667" ry="81.333"/>
	<circle fill="none" stroke="#000000" stroke-width="2" stroke-miterlimit="10" cx="816.022" cy="523.695" r="55"/>
	
		<rect x="780.86" y="559.261" fill="none" stroke="#000000" stroke-width="2" stroke-miterlimit="10" width="67.608" height="59.777"/>
	<polygon fill="none" stroke="#000000" stroke-width="2" stroke-miterlimit="10" points="812.689,595.705 761.022,540.799 
		868.307,540.799 	"/>
</g>
<g>
	<path fill="none" stroke="#000000" stroke-width="2" stroke-miterlimit="10" d="M1748.414,710.767c0,44.92-7.46,81.33-16.67,81.33
		c-9.2,0-16.66-36.41-16.66-81.33c0-39.24,5.69-71.99,13.26-79.65c1.1-1.11-1.16,13.02,0,13.02c4.62,0,12.19-5.56,15.21,9.23
		C1746.553,668.077,1748.414,688.367,1748.414,710.767z"/>
	<path fill="none" stroke="#000000" stroke-width="2" stroke-miterlimit="10" d="M1728.343,631.117
		c0.19-12.72-1.078-9.458,15.21-16.089c4.065-1.655,16.6-5.671,20.11-3.561h31.94v-33.04c-6.56-5.45-11.83-12.42-15.29-20.35
		l-4.55-4.84h2.71c-1.76-5.38-2.71-11.13-2.71-17.1c0-30.38,24.63-55,55-55c30.38,0,55,24.62,55,55c0,5.97-0.95,11.72-2.71,17.1
		c-3.61,11.06-10.64,20.58-19.84,27.31v30.92h33.9c3.5-2.11,7.61-3.32,11.99-3.32c12.88,0,23.33,10.45,23.33,23.33
		c0,12.89-10.45,23.34-23.33,23.34l-18,85.32"/>
	<path fill="none" stroke="#000000" stroke-width="2" stroke-miterlimit="10" d="M1743.553,653.367c0.72,0.27,1.46,0.5,2.21,0.7
		l12,86.07"/>
	<path fill="none" stroke="#000000" stroke-width="2" stroke-miterlimit="10" d="M1803.104,968.137c0,26.84-3.25,51.239-8.55,69.33
		c5.3,18.09,8.55,42.489,8.55,69.329c0,55.78-14.03,101-31.34,101c-17.3,0-31.33-45.22-31.33-101c0-26.84,3.25-51.239,8.55-69.329
		c-5.3-18.091-8.55-42.49-8.55-69.33c0-55.78,14.03-101,31.33-101C1789.073,867.137,1803.104,912.357,1803.104,968.137z"/>
	<polygon fill="none" stroke="#000000" stroke-width="2" stroke-miterlimit="10" points="1897.193,836.757 1824.434,891.467 
		1751.664,836.757 	"/>
	<polyline fill="none" stroke="#000000" stroke-width="2" stroke-miterlimit="10" points="1891.104,740.137 1891.104,830.807 
		1757.764,830.807 1757.764,740.137 	"/>
	<path fill="none" stroke="#000000" stroke-width="2" stroke-miterlimit="10" d="M1955.974,725.477c0,44.92-7.46,81.33-16.67,81.33
		c-9.2,0-16.67-36.41-16.67-81.33c0-44.92,7.47-81.34,16.67-81.34C1948.514,644.137,1955.974,680.557,1955.974,725.477z"/>
	<path fill="none" stroke="#000000" stroke-width="2" stroke-miterlimit="10" d="M1904.883,968.137c0,26.84-3.25,51.239-8.55,69.33
		c5.3,18.09,8.55,42.489,8.55,69.329c0,55.78-14.03,101-31.34,101c-17.3,0-31.33-45.22-31.33-101c0-26.84,3.25-51.239,8.55-69.329
		c-5.3-18.091-8.55-42.49-8.55-69.33c0-55.78,14.03-101,31.33-101C1890.854,867.137,1904.883,912.357,1904.883,968.137z"/>
</g>
</svg>
